ply
format ascii 1.0
comment my planes
element vertex 8
property float32 x
property float32 y
property float32 z
property uchar red
property uchar green
property uchar blue
element face 4
property list uint8 int32 vertex_indices
end_header
-1.000000 -1.000000 -1.000000 255 0 0
1.000000 -1.000000 -1.000000 255 0 0
1.000000 1.000000 -1.000000 255 0 0
-1.000000 1.000000 -1.000000 255 0 0
-1.000000 -1.000000 1.000000 0 0 255
1.000000 -1.000000 1.000000 0 0 255
1.000000 1.000000 1.000000 0 0 255
-1.000000 1.000000 1.000000 0 0 255
3 0 1 2
3 0 2 3
3 5 4 7
3 5 7 6
